# xmcd CD database file
#
# Track frame offsets:
#	150
#	62957
#	96400
#	132385
#	161142
#	179210
#	196401
#	232122
#	305730
#
# Disc length: 4794 seconds
#
# Revision: 0
# Processed by: cddbd v1.5.2PL0 Copyright (c) Steve Scherf et al.
# Submitted via: CDex 1.51
#
DISCID=9012b809
DTITLE=Cannonball Adderly - The David Axelrod Years
DYEAR=2008
DGENRE=Jazz
TTITLE0=Taurus
TTITLE1=Space Spiritual
TTITLE2=Why Am I Treated SO Bad
TTITLE3=Do Do Do (What Now Is Next?)
TTITLE4=Gone
TTITLE5=Ndolima
TTITLE6=Aquarius
TTITLE7=The Black Messiah
TTITLE8=Dialogues for Jazz Quintet and Orchestra
EXTD=YEAR: 2008
EXTT0=
EXTT1=
EXTT2=
EXTT3=
EXTT4=
EXTT5=
EXTT6=
EXTT7=
EXTT8=
PLAYORDER=
